{"title":"Vehicle 19 (2013) [XviD - Italian English Ac3 5.1 - Sub Ita MIRC","uid":11088775,"size":1501565693,"categoryP":"video","categoryS":"movies","magnet":"?xt=urn:btih:57e28e8eff9622c9fafe3f609317c289cab2e00a&amp;dn=Vehicle+19+%282013%29+%5BXviD+-+Italian+English+Ac3+5.1+-+Sub+Ita+MIRC&amp;tr=udp%3A%2F%2Ftracker.openbittorrent.com%3A80&amp;tr=udp%3A%2F%2Fopen.demonii.com%3A1337&amp;tr=udp%3A%2F%2Ftracker.coppersurfer.tk%3A6969&amp;tr=udp%3A%2F%2Fexodus.desync.com%3A6969","seeders":1,"leechers":0,"uploader":"robbyrs4","files":3,"time":1411491406,"description":"Vehicle 19 (2013) [XviD - Italian English Ac3 5.1 - Sub Ita MIRCrew\n\n\n\n[center][color=red][b][img]http://s19.postimg.org/mqmhlwtlf/Mircrew_original_red_skull.png[/img]\n\n[u]NO FOUND ONLY ORIGINAL RELEASE[/u]\n\n\nVehicle 19 (2013)\n\n\n[img]http://s23.postimg.org/u4rys9duz/image.jpg[/img]\n\n\n[URL=http://www.imdb.com/title/tt1911662/][IMG]http://www.userlogos.org/files/logos/Sucka/imdb_new.png[/IMG][/URL]  \n\n[img]http://imageshack.us/a/img534/6946/zcu.gif[/img]\n\nLingua originale \tInglese\nPaese di produzione \tStati Uniti\nAnno \t2013\nDurata \t85 min\n\nRapporto \t2.35 : 1\nGenere \tthriller, azione\nRegia \tMukunda Michael Dewil\nSceneggiatura \tMukunda Michael Dewil\nMusiche \tDaniel Matthee, James Matthes\n\n[img]http://imageshack.us/a/img4/8946/u96.gif[/img]\n\n\n\n    Paul Walker: Michael Woods\n    Naima McLean: Rachel Shabangu\n    Gys de Villiers: Detective Smith\n    Leyla Haidarian: Angelica Moore\n    Tshepo Maseko: tenente\n    Andrian Mazive: giornalista\n    Welile Nzuza: Mohawk\n    Mangaliso Ngema: giudice\n    Ernest Kubayi: Crackhead\n\n\n[img]http://imageshack.us/a/img844/6546/cupz.gif[/img]\n\nUn viaggiatore (Walker) prende inconsapevolmente un'auto a noleggio che lo lega alla rete della corrotta polizia locale. ......\n\n[img]http://imageshack.us/a/img202/6180/4e6.gif[/img]\n\nA foreign traveler (Walker) unknowingly picks up a rental car that will tie him to a web of corrupt local police......\n &lt;a href=&quot;\nhttp://s23.postimg.org/j6gpa2p9n/vlcsnap_2014_09_23_15h55m53s165.png&quot; rel=&quot;nofollow&quot; target=&quot;_NEW&quot;&gt;\nhttp://s23.postimg.org/j6gpa2p9n/vlcsnap_2014_09_23_15h55m53s165.png&lt;/a&gt;\n &lt;a href=&quot;\nhttp://s23.postimg.org/i6qeeda3v/vlcsnap_2014_09_23_15h56m27s239.png&quot; rel=&quot;nofollow&quot; target=&quot;_NEW&quot;&gt;\nhttp://s23.postimg.org/i6qeeda3v/vlcsnap_2014_09_23_15h56m27s239.png&lt;/a&gt;\n &lt;a href=&quot;\nhttp://s23.postimg.org/j7qn3hr3f/vlcsnap_2014_09_23_15h56m01s248.png&quot; rel=&quot;nofollow&quot; target=&quot;_NEW&quot;&gt;\nhttp://s23.postimg.org/j7qn3hr3f/vlcsnap_2014_09_23_15h56m01s248.png&lt;/a&gt;\n\n\n\n\n[img]http://imageshack.us/a/img571/2166/an4p.gif[/img]\n\n\n\n[spoiler]\nGeneral\nComplete name                            : Vehicle 19 (2013).ita.eng.sub.ita.MIRCrewVehicle 19 (2013).ita.eng.sub.ita.MIRCrew.avi\nFormat                                   : AVI\nFormat/Info                              : Audio Video Interleave\nFile size                                : 1.40 GiB\nDuration                                 : 1h 25mn\nOverall bit rate                         : 2 343 Kbps\nWriting application                      : VirtualDubMod 1.5.4.1 (build 2178/release)\nWriting library                          : VirtualDubMod build 2178/release\n\nVideo\nID                                       : 0\nFormat                                   : MPEG-4 Visual\nFormat profile                           : Simple@L3\nFormat settings, BVOP                    : No\nFormat settings, QPel                    : No\nFormat settings, GMC                     : No warppoints\nFormat settings, Matrix                  : Default (H.263)\nCodec ID                                 : XVID\nCodec ID/Hint                            : XviD\nDuration                                 : 1h 25mn\nBit rate                                 : 1 433 Kbps\nWidth                                    : 720 pixels\nHeight                                   : 300 pixels\nDisplay aspect ratio                     : 2.40:1\nFrame rate                               : 24.000 fps\nColor space                              : YUV\nChroma subsampling                       : 4:2:0\nBit depth                                : 8 bits\nScan type                                : Progressive\nCompression mode                         : Lossy\nBits/(Pixel*Frame)                       : 0.276\nStream size                              : 876 MiB (61%)\nWriting library                          : XviD 64\n\nAudio #1\nID                                       : 1\nFormat                                   : AC-3\nFormat/Info                              : Audio Coding 3\nMode extension                           : CM (complete main)\nCodec ID                                 : 2000\nDuration                                 : 1h 25mn\nBit rate mode                            : Constant\nBit rate                                 : 448 Kbps\nChannel(s)                               : 6 channels\nChannel positions                        : Front: L C R, Side: L R, LFE\nSampling rate                            : 48.0 KHz\nBit depth                                : 16 bits\nCompression mode                         : Lossy\nStream size                              : 274 MiB (19%)\nAlignment                                : Split accross interleaves\nInterleave, duration                     : 42 ms (1.00 video frame)\nInterleave, preload duration             : 500 ms\n\nAudio #2\nID                                       : 2\nFormat                                   : AC-3\nFormat/Info                              : Audio Coding 3\nMode extension                           : CM (complete main)\nCodec ID                                 : 2000\nDuration                                 : 1h 25mn\nBit rate mode                            : Constant\nBit rate                                 : 448 Kbps\nChannel(s)                               : 6 channels\nChannel positions                        : Front: L C R, Side: L R, LFE\nSampling rate                            : 48.0 KHz\nBit depth                                : 16 bits\nCompression mode                         : Lossy\nStream size                              : 274 MiB (19%)\nAlignment                                : Split accross interleaves\nInterleave, duration                     : 42 ms (1.00 video frame)\nInterleave, preload duration             : 500 ms\n\n\n\n\n[/spoiler]\n\n[/color][/b][/center]","torrent":{"xt":"urn:btih:57e28e8eff9622c9fafe3f609317c289cab2e00a","amp;dn":"Vehicle+19+%282013%29+%5BXviD+-+Italian+English+Ac3+5.1+-+Sub+Ita+MIRC","amp;tr":["udp%3A%2F%2Ftracker.openbittorrent.com%3A80","udp%3A%2F%2Fopen.demonii.com%3A1337","udp%3A%2F%2Ftracker.coppersurfer.tk%3A6969","udp%3A%2F%2Fexodus.desync.com%3A6969"],"infoHash":"57e28e8eff9622c9fafe3f609317c289cab2e00a","infoHashBuffer":{"type":"Buffer","data":[87,226,142,142,255,150,34,201,250,254,63,96,147,23,194,137,202,178,224,10]},"announce":[],"urlList":[]}}